<?xml version="1.0" standalone="no"?>
<!DOCTYPE svg PUBLIC "-//W3C//DTD SVG 20010904//EN"
 "http://www.w3.org/TR/2001/REC-SVG-20010904/DTD/svg10.dtd">
<svg version="1.0" xmlns="http://www.w3.org/2000/svg"
 width="700.000000pt" height="700.000000pt" viewBox="0 0 700.000000 700.000000"
 preserveAspectRatio="xMidYMid meet">
<metadata>
Created by potrace 1.11, written by Peter Selinger 2001-2013
</metadata>
<g transform="translate(0.000000,700.000000) scale(0.100000,-0.100000)"
fill="#000000" stroke="none">
<path d="M4038 4685 c-2 -1 -28 -5 -58 -8 -48 -6 -142 -22 -245 -42 -16 -3
-63 -15 -103 -26 -40 -11 -81 -22 -90 -24 -29 -7 -174 -62 -261 -99 -374 -162
-756 -467 -984 -787 -60 -85 -76 -123 -73 -179 5 -81 46 -139 132 -187 39 -21
428 -245 469 -270 22 -13 54 -31 71 -39 l31 -16 0 -262 c0 -233 1 -264 17
-288 39 -60 130 -58 161 3 8 15 15 46 15 69 0 51 22 105 48 119 37 20 87 13
116 -15 31 -31 28 -9 31 -264 1 -136 6 -213 14 -227 32 -62 128 -65 166 -6 13
20 17 54 18 179 1 150 1 155 26 185 41 48 123 41 152 -13 11 -20 17 -63 18
-131 1 -16 13 -40 30 -57 39 -41 91 -42 132 -1 30 30 32 38 31 104 l-1 39 37
-22 c123 -74 198 -108 227 -103 40 6 72 28 94 64 17 27 18 86 16 1092 0 584
-5 1071 -10 1082 -30 71 -106 125 -180 130 -24 1 -46 1 -47 0z m-279 -799 c48
-31 70 -57 87 -103 36 -102 -3 -205 -97 -253 -137 -70 -299 27 -299 180 0 156
179 258 309 176z m-733 -132 c124 -55 160 -219 70 -319 -47 -52 -92 -72 -158
-70 -194 6 -273 237 -123 361 62 51 138 61 211 28z m934 -584 c107 -30 171
-156 133 -265 -62 -184 -332 -180 -387 6 -47 158 95 303 254 259z"/>
</g>
</svg>
